<?xml version="1.0" standalone="no"?>
<!DOCTYPE svg PUBLIC "-//W3C//DTD SVG 20010904//EN"
 "http://www.w3.org/TR/2001/REC-SVG-20010904/DTD/svg10.dtd">
<svg version="1.0" xmlns="http://www.w3.org/2000/svg"
 width="225.000000pt" height="225.000000pt" viewBox="0 0 225.000000 225.000000"
 preserveAspectRatio="xMidYMid meet">

<g transform="translate(0.000000,225.000000) scale(0.100000,-0.100000)"
fill="#000000" stroke="none">
<path d="M815 2148 c-27 -15 -44 -39 -45 -60 0 -17 -16 -18 -197 -18 -221 0
-242 -6 -283 -72 -19 -32 -20 -53 -20 -918 0 -865 1 -886 20 -918 11 -18 34
-41 52 -52 32 -19 52 -20 783 -20 731 0 751 1 783 20 18 11 41 34 52 52 19 32
20 53 20 918 0 865 -1 886 -20 918 -41 66 -62 72 -282 72 -182 0 -198 1 -198
18 -1 22 -19 45 -47 60 -30 17 -590 16 -618 0z m585 -213 l0 -135 -275 0 -275
0 0 135 0 135 275 0 275 0 0 -135z m-630 0 l0 -45 -160 0 -160 0 0 -810 0
-810 675 0 675 0 0 810 0 810 -160 0 -160 0 0 45 0 45 193 0 c137 0 196 -3
205 -12 17 -17 17 -1759 0 -1776 -17 -17 -1489 -17 -1506 0 -17 17 -17 1759 0
1776 9 9 68 12 205 12 l193 0 0 -45z m0 -152 c1 -23 19 -46 47 -61 30 -17 586
-17 616 0 28 15 46 38 47 61 0 15 12 17 115 17 l115 0 0 -720 0 -720 -585 0
-585 0 0 720 0 720 115 0 c103 0 115 -2 115 -17z"/>
<path d="M680 1440 l0 -40 245 0 245 0 0 40 0 40 -245 0 -245 0 0 -40z"/>
<path d="M1400 1440 l0 -40 85 0 85 0 0 40 0 40 -85 0 -85 0 0 -40z"/>
<path d="M680 1170 l0 -40 245 0 245 0 0 40 0 40 -245 0 -245 0 0 -40z"/>
<path d="M1400 1170 l0 -40 85 0 85 0 0 40 0 40 -85 0 -85 0 0 -40z"/>
<path d="M680 900 l0 -40 245 0 245 0 0 40 0 40 -245 0 -245 0 0 -40z"/>
<path d="M1400 900 l0 -40 85 0 85 0 0 40 0 40 -85 0 -85 0 0 -40z"/>
<path d="M680 630 l0 -40 245 0 245 0 0 40 0 40 -245 0 -245 0 0 -40z"/>
<path d="M1400 630 l0 -40 85 0 85 0 0 40 0 40 -85 0 -85 0 0 -40z"/>
</g>
</svg>
