<?xml version="1.0" standalone="no"?>
<!DOCTYPE svg PUBLIC "-//W3C//DTD SVG 20010904//EN"
 "http://www.w3.org/TR/2001/REC-SVG-20010904/DTD/svg10.dtd">
<svg version="1.0" xmlns="http://www.w3.org/2000/svg"
 width="225.000000pt" height="225.000000pt" viewBox="0 0 225.000000 225.000000"
 preserveAspectRatio="xMidYMid meet">

<g transform="translate(0.000000,225.000000) scale(0.100000,-0.100000)"
fill="#000000" stroke="none">
<path d="M350 1125 l0 -915 635 0 635 0 0 203 0 203 -70 69 -70 69 0 -202 0
-202 -495 0 -495 0 0 775 0 775 495 0 495 0 0 -202 0 -202 70 69 70 69 0 203
0 203 -635 0 -635 0 0 -915z"/>
<path d="M1587 1403 l-47 -48 82 -82 83 -83 -428 0 -427 0 0 -65 0 -65 427 0
428 0 -83 -83 -82 -83 50 -49 50 -50 165 165 165 165 -162 162 c-90 90 -165
163 -168 163 -3 0 -27 -21 -53 -47z"/>
</g>
</svg>
