<?xml version="1.0" standalone="no"?>
<!DOCTYPE svg PUBLIC "-//W3C//DTD SVG 20010904//EN"
 "http://www.w3.org/TR/2001/REC-SVG-20010904/DTD/svg10.dtd">
<svg version="1.0" xmlns="http://www.w3.org/2000/svg"
 width="512.000000pt" height="512.000000pt" viewBox="0 0 512.000000 512.000000"
 preserveAspectRatio="xMidYMid meet">

<g transform="translate(0.000000,512.000000) scale(0.100000,-0.100000)"
fill="#000000" stroke="none">
<path d="M841 4018 c-66 -25 -137 -93 -171 -163 l-25 -50 -3 -543 -3 -542 493
2 492 3 111 281 c60 154 118 293 127 307 49 73 166 81 235 14 29 -27 50 -83
189 -500 110 -329 159 -465 165 -454 5 8 81 188 169 399 131 311 167 389 195
415 57 54 149 56 206 5 19 -17 73 -112 142 -247 l112 -220 140 -5 c124 -4 144
-8 171 -27 64 -46 84 -150 41 -213 -44 -67 -71 -75 -268 -78 -189 -4 -241 4
-284 41 -14 12 -52 73 -84 135 l-57 113 -179 -426 c-98 -234 -186 -439 -197
-455 -53 -87 -199 -94 -257 -11 -10 14 -87 232 -171 484 -83 252 -153 457
-155 455 -2 -2 -26 -62 -55 -135 -55 -143 -79 -173 -148 -193 -23 -6 -239 -10
-585 -10 l-548 0 3 -542 3 -543 25 -50 c35 -72 105 -138 173 -164 l58 -21
1659 0 c1655 0 1659 0 1715 21 67 25 141 94 175 164 l25 50 0 1245 0 1245 -22
47 c-32 69 -108 141 -176 167 l-58 21 -1662 -1 c-1661 0 -1662 0 -1716 -21z"/>
</g>
</svg>
